<svg xmlns:xlink="http://www.w3.org/1999/xlink" class="icon medium">
    <symbol viewBox="0 0 80 80" id="envelope" xmlns="http://www.w3.org/2000/svg"><path d="M65.115 20H14.976C12.253 20 10 22.253 10 24.976v30.046c0 2.723 2.253 4.976 4.976 4.976h50.045c2.723 0 4.976-2.253 4.976-4.976V24.976c.094-2.723-2.16-4.976-4.882-4.976zm-6.01 4.976L41.079 35.962c-.47.281-1.22.281-1.784 0L20.985 24.976h38.12zM14.977 55.022V27.23l21.502 13.05c1.032.752 2.253 1.033 3.474 1.033 1.22 0 2.535-.281 3.474-1.032L64.927 27.23v27.792h-49.95z"></path></symbol>
    <use xlink:href="#envelope"></use>
</svg>
