<svg xmlns:xlink="http://www.w3.org/1999/xlink" class="icon medium">
    <symbol viewBox="0 0 80 80" id="social-linkedin" xmlns="http://www.w3.org/2000/svg"><path d="M65.557 9.894H14.292c-2.441 0-4.413 1.969-4.413 4.313v51.375c0 2.344 1.972 4.312 4.413 4.312h51.171c2.441 0 4.413-1.969 4.413-4.312V14.207c.094-2.344-1.878-4.313-4.319-4.313zM27.719 60.988h-8.92V32.394h8.92v28.594zm-4.507-32.531c-2.817 0-5.164-2.344-5.164-5.157 0-2.812 2.347-5.156 5.164-5.156 2.817 0 5.164 2.344 5.164 5.157 0 2.906-2.254 5.156-5.164 5.156zM61.05 60.988h-8.92V47.113c0-3.281-.093-7.594-4.6-7.594-4.6 0-5.352 3.657-5.352 7.313v14.156h-8.92V32.394h8.544v3.938h.094c1.22-2.25 4.132-4.594 8.45-4.594 9.014 0 10.704 5.906 10.704 13.688v15.562z"></path></symbol>
    <use xlink:href="#social-linkedin"></use>
</svg>
