<svg xmlns:xlink="http://www.w3.org/1999/xlink"  class="icon global-nav__ap-logo-large icon--large fill--gold60" title="Audemars Piguet" aria-labelledby="4aca0772">
    <symbol viewBox="0 0 330.728 70.04" id="logo" xmlns="http://www.w3.org/2000/svg"><path fill="#AB9257" d="M124.672 66.059c-.792 2.487-.927 2.962 1.832 2.962 2.599 0 3.571-.113 4.951-2.351.226-.068.452-.023.498.136-.249.769-1.041 2.373-1.447 2.984a96.69 96.69 0 0 0-2.646-.045c-.904-.023-1.787-.023-2.578-.023h-2.623c-.927 0-1.673.023-2.397.068-.181-.113-.181-.43-.022-.565l.542-.068c1.086-.158 1.312-.385 2.036-2.691l2.645-8.411c.678-2.126.724-2.488-.52-2.668l-.543-.091c-.135-.181-.112-.474.136-.565.882.022 1.651.068 2.577.068.973 0 1.674-.046 2.849-.068.159.091.205.453 0 .565l-.701.091c-1.288.158-1.401.429-2.102 2.668l-2.487 8.004zm16.537-4.205c0 1.718-2.238 2.848-5.494 3.753-.158.385-.317 1.108-.317 2.013 0 .769.475 1.289 1.085 1.289.815 0 1.38-.453 2.375-1.312.203 0 .339.181.294.385-1.379 1.695-2.669 2.057-3.618 2.057-1.357 0-1.832-1.266-1.832-2.374 0-1.425.905-4.183 3.37-6.083 1.175-.904 2.057-1.085 2.713-1.085.905 0 1.424.769 1.424 1.357m-3.595.429c-.882.95-1.401 1.99-1.672 2.646 1.492-.452 2.193-.881 3.029-1.673.701-.656.882-1.335.882-1.538 0-.226-.114-.52-.52-.52-.317 0-.905.203-1.719 1.085M153.609 57.581c.543-1.741.34-1.945-.679-2.013l-.746-.023c-.157-.112-.113-.429 0-.542a27.09 27.09 0 0 1 3.8-.271c1.198 0 2.577.09 3.662.542 1.109.475 1.922 1.335 1.922 2.85 0 2.283-2.283 3.346-3.527 3.436-.362.023-.204.181 0 .249a3.489 3.489 0 0 1 2.352 3.324c0 .836-.249 1.99-1.221 2.939-.95.95-2.623 1.719-5.427 1.719-1.222 0-2.057-.068-3.007-.068a33.8 33.8 0 0 0-2.329.068c-.181-.114-.181-.43-.022-.566l.452-.068c1.085-.158 1.311-.384 2.035-2.69l2.735-8.886zm-1.243 9.542c-.475 1.491.18 1.967 1.809 1.967 1.899 0 4.274-1.177 4.274-4.229 0-1.921-1.652-2.849-3.347-2.849-1.086 0-1.176.023-1.402.769l-1.334 4.342zm1.989-6.445c-.158.543-.135.656.838.656 1.627 0 4.521-.791 4.521-3.64 0-1.312-.995-2.261-2.849-2.261-.858 0-.904-.023-1.107.723l-1.403 4.522zm11.816 1.967l-.972 2.85h.112c.68-1.267 1.787-3.076 2.376-3.821.519-.68 1.084-1.177 1.649-1.177.792 0 .905.769.905 1.108 0 .34-.204.995-.475 1.357-.271.339-.634.362-.723-.113-.113-.588-.249-.882-.476-.882-.203 0-.451.226-.79.678-1.38 1.765-2.646 4.522-3.844 7.123-.09.18-.204.271-.385.271-.249 0-.905-.091-.746-.588.294-.904 1.719-4.906 2.329-7.122.068-.249.022-.475-.181-.475-.588 0-1.198.633-1.605 1.176-.226.045-.385-.091-.362-.362.723-1.221 1.583-2.171 2.668-2.171 1.131 0 .724 1.538.52 2.148m11.861-2.667c.385-.181.972.045 1.109.338-.34.838-2.307 5.834-3.03 7.893-.137.383-.024.519.158.519.384 0 1.039-.384 2.328-1.514.16 0 .317.112.317.293-.95 1.266-2.554 2.532-3.798 2.532a.623.623 0 0 1-.656-.61c0-.158.045-.362.226-.882l.746-2.035-.068-.023c-1.606 1.991-3.911 3.55-4.975 3.55-.632 0-.994-.633-.994-1.266 0-.52.497-2.329 1.989-4.386 1.085-1.492 2.058-2.397 2.985-2.917.883-.498 1.447-.657 2.035-.657.249 0 .406.069.543.137.09.044.339.248.452.475l.633-1.447zm-3.934 2.577c-1.447 1.289-2.826 4.251-2.826 5.856 0 .272.135.43.339.43.225 0 .904-.294 2.193-1.47 1.718-1.605 2.668-3.55 3.03-4.884-.159-.429-.542-.813-1.132-.813-.541 0-.903.247-1.604.881m11.857-.769c0 .362-.227.61-.407.701-.158.045-.294 0-.429-.181-.385-.385-.68-.724-1.381-.724-.655 0-.926.566-.926.905 0 .475.113.949.769 2.057.564.95.904 1.515.858 2.51-.022.611-.338 1.447-1.175 2.171-.588.52-1.424.814-2.284.814-.86 0-1.379-.679-1.379-1.199 0-.226.09-.474.339-.746a.453.453 0 0 1 .611 0c.293.339.972.905 1.56.905.543 0 1.085-.566 1.085-1.289 0-.385-.271-1.085-.836-1.99-.589-.949-.793-1.718-.793-2.102 0-.883.385-1.538 1.358-2.375.656-.566 1.379-.746 1.672-.746.838 0 1.358.723 1.358 1.289m6.451 0c0 .362-.227.61-.407.701-.158.045-.294 0-.429-.181-.385-.385-.679-.724-1.38-.724-.656 0-.927.566-.927.905 0 .475.114.949.769 2.057.565.95.905 1.515.859 2.51-.023.611-.338 1.447-1.175 2.171-.588.52-1.425.814-2.284.814-.86 0-1.38-.679-1.38-1.199 0-.226.091-.474.339-.746a.453.453 0 0 1 .611 0c.294.339.972.905 1.56.905.544 0 1.086-.566 1.086-1.289 0-.385-.271-1.085-.837-1.99-.588-.949-.791-1.718-.791-2.102 0-.883.385-1.538 1.357-2.375.655-.566 1.378-.746 1.672-.746.837 0 1.357.723 1.357 1.289M195.784 67.778c-.205.543-.091.769.157.769.34 0 1.245-.724 2.419-1.877 2.058-2.035 3.234-4.658 3.981-6.037.474-.09 1.017.136 1.107.406-.227.611-1.695 4.32-2.645 7.01-.113.294-.136.566.09.566.43 0 1.629-1.063 2.216-1.764.204-.045.385.045.407.316-.588 1.086-2.758 2.873-3.957 2.873-.362 0-.701-.43-.565-.792l1.538-4.138-.045-.022c-1.629 2.057-4.432 4.952-5.654 4.952-.927 0-1.039-.928-.656-1.922l2.082-5.495c.158-.43.18-.656 0-.656-.431 0-1.607.995-2.149 1.56a.314.314 0 0 1-.384-.339c.587-.905 2.849-2.691 3.911-2.691.295 0 .814.295.679.678l-2.532 6.603zm14.819-5.992c0 .362-.227.61-.407.701-.158.045-.294 0-.429-.181-.385-.385-.68-.724-1.38-.724-.656 0-.927.566-.927.905 0 .475.113.949.769 2.057.565.95.904 1.515.858 2.51-.022.611-.338 1.447-1.174 2.171-.589.52-1.425.814-2.285.814-.86 0-1.38-.679-1.38-1.199 0-.226.091-.474.34-.746a.453.453 0 0 1 .611 0c.294.339.972.905 1.56.905.543 0 1.085-.566 1.085-1.289 0-.385-.271-1.085-.836-1.99-.589-.949-.793-1.718-.793-2.102 0-.883.385-1.538 1.358-2.375.656-.566 1.379-.746 1.672-.746.838 0 1.358.723 1.358 1.289M43.647 8.61c1.649 0 3.077 1.686 3.077 4.342v20.785c0 7.636-3.137 7.004-6.439 7.004-3.301 0-3.689-3.271-3.689-7.051V12.952c0-2.656 1.429-4.342 3.076-4.342V7.534H28.424V8.61c1.648 0 3.139 1.686 3.139 4.342v22.47c0 4.335 2.343 7.552 7.832 7.552 5.491 0 8.861-.291 8.861-9.391V12.952c0-2.656 1.428-4.342 3.07-4.342V7.534h-7.679V8.61m237.912 0c1.65 0 2.958 1.686 2.958 4.342v20.785c0 7.636-3.137 7.004-6.439 7.004-3.301 0-3.69-3.271-3.69-7.051V12.952c0-2.656 1.37-4.342 3.017-4.342V7.534h-11.068V8.61c1.648 0 3.018 1.686 3.018 4.342v22.47c0 4.335 2.344 7.552 7.832 7.552 5.491 0 8.862-.291 8.862-9.391V12.952c0-2.656 1.307-4.342 2.95-4.342V7.534h-7.44V8.61M66.286 40.513c-.449.124-2.385.339-3.966.193-1.296-.119-1.361-.307-1.361-3.174V12.641c0-2.867.72-3.564 3.043-3.564 2.871 0 4.129.829 5.092 3.379 1.917 4.925 1.607 14.088 1.072 21.052 0 0-.721 6.141-3.88 7.005m-.769-32.979H52.908V8.61c1.652 0 3.019 1.686 3.019 4.342v23.972c0 2.66-1.367 4.332-3.019 4.332v1.068h14.136c2.281 0 4.898-1.306 6.512-5.952 1.579-4.825 1.767-8.76 1.547-14.815-.301-5.999-1.276-9.657-2.684-11.474-1.407-1.817-3.666-2.549-6.902-2.549m20.878 33.151c-1.616-.202-1.806-.919-1.806-3.527V25.677c3.637.306 3.979.297 4.906 5.091h.979V18.801h-.979c-.786 4.538-1.269 4.782-4.906 5.087v-11.7c0-2.61.217-3.07 1.355-3.021l2.104.104c4.968.203 5.224 3.191 5.541 4.93h1.248V7.533H76.478V8.61c1.647 0 3.077 1.686 3.077 4.342v23.971c0 2.66-1.43 4.333-3.077 4.333v1.067h18.587l1.391-6.307h-1.408c-1.637 5.625-6.164 4.752-8.653 4.669m214.04 0c-1.612-.202-1.804-.919-1.804-3.527V25.677c3.637.309 3.979.297 4.908 5.091h.976V18.801h-.976c-.79 4.539-1.271 4.782-4.908 5.087v-11.7c0-2.61.22-3.07 1.356-3.021l2.103.104c4.97.203 5.226 3.189 5.541 4.93h1.25V7.533h-18.302V8.61c1.65 0 3.016 1.686 3.016 4.342v23.971c0 2.66-1.366 4.333-3.016 4.333v1.067h18.529l1.391-6.307h-1.408c-1.637 5.626-6.165 4.753-8.656 4.669M19.617 27.372h-8.706l8.706-21.485v21.485M25.236 0h-9.562v1.103c2.523 0 2.756 1.861 1.949 3.9-3.211 8.126-11.315 28.653-12.264 30.75C4.177 38.375 2.513 41.255 0 41.255v1.069h9.054v-1.069c-2.061 0-2.68-3.016-1.656-5.492 1.022-2.477 2.816-6.843 2.816-6.843h9.403v7.537c0 4.581-1.629 4.798-3.936 4.798v1.069h13.502v-1.069c-1.92 0-3.931-.139-3.931-4.799 0-2.42-.016-36.456-.016-36.456m198.18 20.247c0 1.138-.406 1.742-1.243 1.742h-4.536l.005-9.247V10.61l-.005-9.067h4.536c.837 0 1.243.663 1.243 1.995v16.709zm1.078-20.254h-16.493v1.114c2.359 0 3.948 1.586 3.948 4.727v30.215c0 4.82-1.804 5.207-3.939 5.207v1.068h13.503v-1.068c-2.438 0-3.876-.534-3.876-5.181V23.601h7.204c2.32 0 4.119-1.682 4.119-5.508V5.261c0-3.051-1.508-5.268-4.466-5.268M113.465 31.856l-6.721-24.322h-8.872V8.61c2.231 0 3.134.762 3.134 4.44v23.873c0 2.66-1.276 4.333-3.087 4.333v1.068h7.829v-1.068c-1.811 0-3.09-1.673-3.09-4.333V11.878l8.533 30.446h.836l8.842-30.338v24.937c0 2.66-1.278 4.333-3.089 4.333v1.068h11.362v-1.068c-1.809 0-3.151-1.673-3.151-4.333V12.952c0-2.656 1.342-4.342 3.151-4.342V7.534h-8.55l-7 23.765m54.045-10.436c0 4.164-4.415 3.589-5.963 3.641V11.371c0-1.385.051-2.099 1.295-2.099 2.363 0 4.668-.391 4.668 2.869v8.722zm6.387 18.567l-5.793-13.687c1.836-.431 4.164-1.138 4.164-4.351 0-3.461-.08-7.113-.08-9.535 0-4.323-3.968-4.323-8.033-4.323h-10.654v1.077c1.643 0 3.007 1.685 3.007 4.341v23.971c0 2.654-1.774 4.333-3.056 4.333v1.068h11.165v-1.068c-1.638 0-3.07-1.673-3.07-4.333V26.139h1.66l5.745 14.282s.291.848.873 1.417c.549.538 1.668.486 1.668.486h4.151v-1.068c-.379 0-.86.264-1.747-1.826m58.252-30.82c2.06 0 3.014 1.686 3.014 4.342v23.971c0 2.66-.954 4.333-3.014 4.333v1.068h11.049v-1.068c-2.058 0-3.003-1.673-3.003-4.333V12.952c0-2.656.945-4.342 3.003-4.342V7.534h-11.049V8.61m-45.004 12.261c-3.833-1.992-5.298-4.6-5.298-6.848 0-1.23.517-5.757 3.58-5.757 4.668.052 6.123 6.667 6.635 9.556h.914V6.999h-1.024c-.049 1.185-.486 1.472-1.041 1.472-1.735-.051-2.252-2.081-6.77-1.892-2.925.123-6.576 2.681-6.576 9.631 0 3.171 1.219 7.62 5.12 10.271 5.673 3.841 7.481 5.37 7.481 8.331 0 1.23-.354 6.372-4.883 6.372-3.202 0-5.31-5.267-5.727-7.259l-.729-3.575h-1.023v12.18h1.057c.108-.97.362-1.5.784-1.5 1.671 0 3.384 1.777 6.344 1.74 7.517-.096 8.85-6.465 8.85-10.039 0-4.909-2.338-9.101-7.694-11.86M257.8 24.749v.902s1.525.138 1.525 2.566v8.138c0 4.346-1.497 4.696-4.152 4.696-2.654 0-3.706-.977-3.706-4.298V12.781c0-2.269 1.171-4.21 3.974-4.21 3.105 0 6.426 3.114 6.426 9.133h1.694V6.992h-1.275c0 4.097-2.43-.12-6.704-.12-3.1 0-5.655.795-7.11 2.449-1.486 1.67-2.166 3.694-2.166 6.064v18.813c0 2.373.68 4.378 2.166 6.017 1.48 1.704 4.723 2.556 6.829 2.556 1.23 0 2.987-.453 3.871-.884.882-.429 1.691-1.057 2.423-1.886 1.514-1.704 2.266-3.71 2.266-6.016v-5.827c0-2.317 1.528-2.507 1.528-2.507v-.902H257.8zM150.338 38.863l-7.057-31.449h-6.229v1.103c2.168 0 1.864 1.754 1.465 3.924l-5.088 25.429c-.701 2.889-1.616 3.386-2.48 3.386v1.068h5.905v-1.068c-2.205 0-2.237-1.792-1.6-4.476l1.045-5.066h7.447l1.362 6.256c.698 2.789-.413 3.286-1.749 3.286v1.068h8.961v-1.068h.008c-.536-.012-1.448-.235-1.99-2.393m-13.688-8.792l3.116-15.642 3.509 15.642h-6.625zM311.164 7.534v6.667h1.152c.155-1.328.45-3.292 1.659-4.066 1.208-.773 2.445-.726 4.452-.726v27.515c0 2.66-1.301 4.332-2.952 4.332v1.068h11.004v-1.068c-1.648 0-3.015-1.672-3.015-4.332V9.409c2.007 0 3.245-.047 4.453.726 1.21.774 1.504 2.738 1.66 4.066h1.151V7.534h-19.564z"></path></symbol>
    <use xlink:href="#logo"></use>
    <title id="4aca0772">Audemars Piguet</title>
</svg>
