<svg xmlns:xlink="http://www.w3.org/1999/xlink" class="icon global-nav__condensed-logo icon--large fill--gold60" title="Audemars Piguet" aria-labelledby="c9d20c50">
    <symbol viewBox="0 0 39 35" id="ap-condensed-logo" xmlns="http://www.w3.org/2000/svg"><path d="M33 1.6c-.1 0-.1 0 0 0H12.8v.8c1.9 0 2 1.4 1.4 2.9-2.4 6-8.3 21-9 22.5-.9 1.9-2.1 4-4 4v.8h6.7v-.8c-1.5 0-2-2.2-1.2-4 .8-1.8 2.1-5 2.1-5h6.9v5.5c0 3.4-1.2 3.5-2.9 3.5v.8h17.9v-.8c-1.8 0-2.9-.4-2.9-3.8v-9.1h5.3c1.7 0 3-1.2 3-4V5.5c.1-2.3-1-3.9-3.1-3.9zM15.7 21.7H9.3L15.7 6v15.7zm8 8.1c0 2-1.5 2-1.9 2-.5 0-1.9 0-1.9-2V4.5c.1-1.8 1.2-2 2-2s1.9.3 1.9 2.2c-.1 6.3-.1 23.6-.1 25.1zm8.5-13.3c0 .8-.3 1.3-.9 1.3H28v-15h3.3c.6 0 .9.5.9 1.5v12.2z"></path></symbol>
    <use xlink:href="#ap-condensed-logo"></use>
<title id="c9d20c50">Audemars Piguet</title></svg>
