<svg xmlns:xlink="http://www.w3.org/1999/xlink" class="icon medium">
    <symbol viewBox="0 0 80 80" id="printer" xmlns="http://www.w3.org/2000/svg"><path d="M65.333 24.606H58.97V12.152c0-1.188-.896-2.152-2-2.152H23.03c-1.104 0-2 .963-2 2.152v12.454h-6.363c-2.574 0-4.667 2.252-4.667 5.021v21.649c0 2.769 2.093 5.021 4.667 5.021h6.364v11.551c0 1.189.895 2.152 2 2.152h33.938c1.105 0 2-.963 2-2.152V56.297h6.364c2.574 0 4.667-2.252 4.667-5.021V29.627c0-2.768-2.093-5.021-4.667-5.021zM25.03 14.304h29.94v10.302H25.03V14.304zm29.94 51.392H25.03V48.091h29.94v17.605zM66 51.276c0 .396-.299.717-.667.717H58.97V45.94c0-1.189-.895-2.152-2-2.152H23.031c-1.105 0-2 .963-2 2.152v6.053h-6.364c-.368 0-.667-.321-.667-.717V29.627c0-.395.299-.717.667-.717h50.666c.368 0 .667.322.667.717v21.65z"></path><path d="M56.97 33.436h-5.091a2 2 0 0 0 0 4h5.09a2 2 0 0 0 0-4z"></path></symbol>
    <use xlink:href="#printer"></use>
</svg>
