<svg xmlns:xlink="http://www.w3.org/1999/xlink" class="icon medium">
    <symbol viewBox="0 0 80 80" id="share" xmlns="http://www.w3.org/2000/svg"><path d="M66.125 20a8.125 8.125 0 1 1-16.25 0 8.125 8.125 0 0 1 16.25 0z"></path><path d="M58 30c-5.515 0-10-4.485-10-10s4.485-10 10-10 10 4.485 10 10-4.485 10-10 10zm0-16.25A6.257 6.257 0 0 0 51.75 20 6.257 6.257 0 0 0 58 26.25 6.257 6.257 0 0 0 64.25 20 6.257 6.257 0 0 0 58 13.75zM66.125 60a8.125 8.125 0 1 1-16.25 0 8.125 8.125 0 1 1 16.25 0z"></path><path d="M58 70c-5.515 0-10-4.485-10-10s4.485-10 10-10 10 4.485 10 10-4.485 10-10 10zm0-16.25A6.257 6.257 0 0 0 51.75 60 6.257 6.257 0 0 0 58 66.25 6.257 6.257 0 0 0 64.25 60 6.257 6.257 0 0 0 58 53.75zM31.125 40a8.125 8.125 0 1 1-16.25 0 8.125 8.125 0 0 1 16.25 0z"></path><path d="M23 50c-5.515 0-10-4.485-10-10s4.485-10 10-10 10 4.485 10 10-4.485 10-10 10zm0-16.25A6.257 6.257 0 0 0 16.75 40 6.257 6.257 0 0 0 23 46.25 6.257 6.257 0 0 0 29.25 40 6.257 6.257 0 0 0 23 33.75z"></path><path d="M28.903 38.8c-.87 0-1.715-.453-2.176-1.262a2.505 2.505 0 0 1 .936-3.41L50.86 20.902a2.496 2.496 0 0 1 3.41.934 2.504 2.504 0 0 1-.935 3.41L30.137 38.473c-.39.223-.814.328-1.234.328zM52.098 59.425c-.42 0-.845-.105-1.236-.328L27.665 45.873a2.503 2.503 0 0 1-.935-3.41 2.495 2.495 0 0 1 3.41-.935l23.198 13.224a2.501 2.501 0 1 1-1.24 4.673z"></path></symbol>
    <use xlink:href="#share"></use>
</svg>
