<svg xmlns:xlink="http://www.w3.org/1999/xlink" class="icon medium">
    <symbol viewBox="0 0 80 80" id="social-twitter" xmlns="http://www.w3.org/2000/svg"><path fill-rule="evenodd" clip-rule="evenodd" d="M66.7 17.9c-2.2.9-4.4 1.8-6.8 2.6-7.7-7.9-22.6-2.1-20.9 10.7-11.1-.9-17.5-6.4-23.9-12-3 5.8.7 13.2 3.4 15.4-1.6-.4-3-1-4.7-1.3.4 6.4 4.2 9.5 9 11.5-2.4.2-2.3.2-4.7 0 1.3 5 5.4 7.1 10.3 8.5-3.8 2.8-9.9 5.4-16.2 4.3C34.6 72.5 64 55 62.9 28.6c1.3-2.3 5.3-4.1 5.1-6.4-1.4 1.1-3.4 1.5-5.6 1.7 1.8-1.7 3.7-3.2 4.3-6z"></path></symbol>
    <use xlink:href="#social-twitter"></use>
</svg>
